<svg width="599" height="599" xmlns="http://www.w3.org/2000/svg">

 <g>
  <title>background</title>
  <rect fill="none" id="canvas_background" height="601" width="601" y="-1" x="-1"/>
 </g>
 <g>
  <title>Layer 1</title>
  <ellipse stroke="#0c6c8c" ry="273.99999" rx="273.99999" id="svg_24" cy="297.49999" cx="301.99999" stroke-width="10.5" fill="none"/>
  <g stroke="null" id="svg_1">
   <g stroke="null" id="svg_2">
    <g stroke="null" id="svg_3">
     <path fill="#0c6c8c" stroke="null" id="svg_4" d="m446.242191,418.839461l-47.103957,-47.103957l23.263584,-23.263584l-76.290498,-41.524465l-4.529533,-4.234617l-7.417102,7.933023l5.096902,4.765756l-12.403139,0l0,10.860445l32.038604,0l30.448086,16.572541l-63.212748,3.425953l-5.947594,-10.927109l-4.305629,-4.604893l-7.933023,7.417102l3.361463,3.595512l41.524465,76.291223l23.263584,-23.263584l47.103957,47.103957l6.874369,22.433182l40.415812,18.542029l16.729057,0l0,-16.729057l-18.542029,-40.415812l-22.434631,-6.873645zm-90.817467,-18.749268l-8.219244,-15.101584l23.317205,0.002898l-15.097961,15.098686zm-14.130607,-25.962754l-9.411227,-17.291354l70.623328,-3.828111l-21.124537,21.124537l-40.087564,-0.005072zm135.062115,97.870814l-3.494791,0l-33.832012,-15.521857l-6.239611,-20.361523l-49.016201,-49.015477l7.685207,-7.685207l44.220012,44.220012l-4.744742,4.744742l7.67941,7.680135l6.275842,-6.275117l9.640928,2.954957l-13.10601,13.10601l7.67941,7.680135l13.971918,-13.971918l13.28209,28.950318l0,3.494791l-0.001449,0z"/>
     <path fill="#0c6c8c" stroke="null" id="svg_5" d="m485.079805,114.561492l-18.823178,-2.420195l-208.367223,194.806158l-76.291223,41.524465l23.263584,23.263584l-47.103957,47.103957l-22.433906,6.874369l-18.541305,40.415813l0,16.729057l16.729057,0l40.415812,-18.542029l6.875094,-22.433182l47.104682,-47.104682l23.263584,23.263584l41.524465,-76.290498l194.804709,-208.367223l-2.420195,-18.823178zm-313.868898,321.554105l-6.239611,20.361523l-33.832012,15.521857l-3.49624,0l0,-3.495516l13.28209,-28.950318l13.971918,13.971918l7.67941,-7.680135l-13.10601,-13.10601l9.640928,-2.954957l6.275842,6.275117l7.67941,-7.680135l-4.744742,-4.744742l44.220012,-44.220012l7.685207,7.685207l-49.016201,49.016201zm77.365094,-36.025404l-15.098686,-15.098686l23.31793,-0.002898l-8.219244,15.101584zm14.130607,-25.962754l-40.088289,0.005072l-21.124537,-21.124537l70.624053,3.828111l-9.411227,17.291354zm21.581766,-39.287596l-0.472445,0.504328l-5.947594,10.926385l-63.212748,-3.425953l30.448811,-16.572541l47.194533,0l-8.010557,8.567781zm18.163059,-19.428227l-37.71157,0l19.787633,-18.500727l35.220363,0l-17.296426,18.500727zm27.449652,-29.361172l-33.756652,0l19.786908,-18.500002l31.265445,0l-17.295701,18.500002zm27.449652,-29.360447l-29.803184,0l19.781111,-18.494205l27.311977,0l-17.289904,18.494205zm27.445305,-29.353926l-25.849715,0l0,-0.000725l19.789082,-18.500727l23.361406,-0.003623l-17.300773,18.505074zm27.455449,-29.367693l-21.897695,0.003623l19.786184,-18.498553l19.402865,0l-17.291354,18.49493zm27.443855,-29.35465l-17.939879,0l19.786908,-18.500002l15.447947,0l-17.294977,18.500002zm27.449652,-29.361172l-13.985686,0l16.780504,-15.688518l5.436744,0.699248l0.699248,5.436744l-8.930811,9.552525z"/>
     <path fill="#0c6c8c" stroke="null" id="svg_6" d="m302.135502,206.715138l16.544281,-16.544281l38.798484,0l0,-78.020141l-110.685531,0l0,78.020141l38.798484,0l16.544281,16.544281zm-44.481596,-83.703977l88.963916,0l0,56.29925l-32.436414,0l-12.045906,12.045906l-12.045906,-12.045906l-32.435689,0l0,-56.29925z"/>
     <polygon fill="#0c6c8c" stroke="null" id="svg_7" points="323.7585754394531,139.14459228515625 314.55242919921875,133.38394927978516 302.13262939453125,153.22665405273438 289.7135314941406,133.38394927978516 280.5080871582031,139.14459228515625 302.13262939453125,173.6975860595703 "/>
     <path fill="#0c6c8c" stroke="null" id="svg_8" d="m270.782379,282.504207l-13.979889,-14.953039l33.394348,0l0,-3.036113l4.909953,-5.251244l-157.362693,-147.122514l-18.823178,2.420195l-2.42092,18.823902l146.349355,156.535914l7.933023,-7.417102zm-142.858188,-152.802727l0.699248,-5.437469l5.436744,-0.699248l16.780504,15.687793l-13.98641,0l-8.930086,-9.551076zm19.084037,20.412246l15.448672,0l19.788357,18.500002l-17.941328,0l-17.295701,-18.500002zm27.449652,29.360447l19.40359,0l19.786184,18.498553l-21.89842,-0.003623l-17.291354,-18.49493zm27.446754,29.3561l23.361406,0.004348l19.789082,18.500727l-25.849715,0l-17.300773,-18.505074zm27.453275,29.36552l27.311977,0l19.781111,18.494205l-29.803184,0l-17.289904,-18.494205z"/>
    </g>
   </g>
  </g>
  <g id="svg_9"/>
  <g id="svg_10"/>
  <g id="svg_11"/>
  <g id="svg_12"/>
  <g id="svg_13"/>
  <g id="svg_14"/>
  <g id="svg_15"/>
  <g id="svg_16"/>
  <g id="svg_17"/>
  <g id="svg_18"/>
  <g id="svg_19"/>
  <g id="svg_20"/>
  <g id="svg_21"/>
  <g id="svg_22"/>
  <g id="svg_23"/>
 </g>
</svg>