<?xml version="1.0" encoding="UTF-8" standalone="no"?>
<!DOCTYPE svg PUBLIC "-//W3C//DTD SVG 1.1//EN" "http://www.w3.org/Graphics/SVG/1.1/DTD/svg11.dtd">
<svg version="1.1" xmlns="http://www.w3.org/2000/svg" xmlns:xlink="http://www.w3.org/1999/xlink" preserveAspectRatio="xMidYMid meet" viewBox="0 0 640 640" width="640" height="640"><defs><path d="M601 0C601 360.6 601 560.93 601 601C601 601 601 601 601 601C240.4 601 40.07 601 0 601C0 601 0 601 0 601C0 240.4 0 40.07 0 0C0 0 0 0 0 0C360.6 0 560.93 0 601 0C601 0 601 0 601 0Z" id="d8dIutHS5E"></path><path d="M601 0C601 360.6 601 560.93 601 601C601 601 601 601 601 601C240.4 601 40.07 601 0 601C0 601 0 601 0 601C0 240.4 0 40.07 0 0C0 0 0 0 0 0C360.6 0 560.93 0 601 0C601 0 601 0 601 0Z" id="c56kegrnFk"></path><path d="M303 572.5C151.67 572.5 29 449.83 29 298.5C29 147.17 151.67 24.5 303 24.5C454.33 24.5 577 147.17 577 298.5C577 449.83 454.33 572.5 303 572.5Z" id="c25rUA8UTP"></path><path d="M303 572.5C151.67 572.5 29 449.83 29 298.5C29 147.17 151.67 24.5 303 24.5C454.33 24.5 577 147.17 577 298.5C577 449.83 454.33 572.5 303 572.5Z" id="b2y4KMK9Sw"></path><path d="M423.4 349.47L400.14 372.74L447.24 419.84L469.68 426.71L488.22 467.13L488.22 483.86L471.49 483.86L431.07 465.32L424.2 442.88L377.1 395.78L353.83 419.04L312.31 342.75L308.95 339.16L316.88 331.74L321.18 336.34L327.13 347.27L390.35 343.84L359.9 327.27L327.86 327.27L327.86 316.41L340.26 316.41L335.16 311.65L342.58 303.71L347.11 307.95L423.4 349.47ZM433.79 437.11L440.03 457.48L473.86 473L477.36 473L477.36 469.5L464.08 440.55L450.1 454.53L442.42 446.84L455.53 433.74L445.89 430.78L439.61 437.06L431.93 429.38L436.68 424.63L392.46 380.41L384.77 388.1L433.79 437.11ZM356.42 401.09L371.52 385.99L348.21 385.99L356.42 401.09ZM342.29 375.13L382.38 375.13L403.51 354.01L332.88 357.84L342.29 375.13Z" id="aauCiC3X5"></path><path d="M423.4 349.47L400.14 372.74L447.24 419.84L469.68 426.71L488.22 467.13L488.22 483.86L471.49 483.86L431.07 465.32L424.2 442.88L377.1 395.78L353.83 419.04L312.31 342.75L308.95 339.16L316.88 331.74L321.18 336.34L327.13 347.27L390.35 343.84L359.9 327.27L327.86 327.27L327.86 316.41L340.26 316.41L335.16 311.65L342.58 303.71L347.11 307.95L423.4 349.47ZM433.79 437.11L440.03 457.48L473.86 473L477.36 473L477.36 469.5L464.08 440.55L450.1 454.53L442.42 446.84L455.53 433.74L445.89 430.78L439.61 437.06L431.93 429.38L436.68 424.63L392.46 380.41L384.77 388.1L433.79 437.11ZM356.42 401.09L371.52 385.99L348.21 385.99L356.42 401.09ZM342.29 375.13L382.38 375.13L403.51 354.01L332.88 357.84L342.29 375.13Z" id="f4gHKFhbkC"></path><path d="M488.5 134.38L293.7 342.75L252.17 419.04L228.91 395.78L181.8 442.88L174.93 465.32L134.51 483.86L117.78 483.86L117.78 467.13L136.32 426.71L158.76 419.84L205.86 372.74L182.6 349.47L258.89 307.95L467.26 113.14L486.08 115.56L488.5 134.38ZM174.07 429.38L166.39 437.06L160.11 430.78L150.47 433.74L163.58 446.84L155.9 454.53L141.93 440.55L128.64 469.5L128.64 473L132.14 473L165.97 457.48L172.21 437.12L221.23 388.1L213.54 380.41L169.32 424.63L174.07 429.38ZM249.58 401.09L257.8 385.99L234.48 385.99L249.58 401.09ZM263.71 375.13L273.12 357.84L202.49 354.01L223.62 375.13L263.71 375.13ZM215.66 343.84L278.87 347.27L284.82 336.34L285.29 335.84L293.3 327.27L246.1 327.27L215.66 343.84ZM265.74 316.41L303.45 316.41L320.75 297.91L285.53 297.91L265.74 316.41ZM297.14 287.05L330.9 287.05L348.2 268.55L316.93 268.55L297.14 287.05ZM328.55 257.69L358.35 257.69L375.64 239.2L348.33 239.2L328.55 257.69ZM359.95 228.34L385.8 228.34L403.1 209.83L379.74 209.83L359.95 228.34ZM391.35 198.97L413.25 198.97L430.54 180.47L411.14 180.47L391.35 198.97ZM422.76 169.61L440.7 169.61L457.99 151.11L442.54 151.11L422.76 169.61ZM468.14 140.25L477.08 130.7L476.38 125.26L470.94 124.56L454.16 140.25L468.14 140.25Z" id="a34zNZsDjx"></path><path d="M488.5 134.38L293.7 342.75L252.17 419.04L228.91 395.78L181.8 442.88L174.93 465.32L134.51 483.86L117.78 483.86L117.78 467.13L136.32 426.71L158.76 419.84L205.86 372.74L182.6 349.47L258.89 307.95L467.26 113.14L486.08 115.56L488.5 134.38ZM174.07 429.38L166.39 437.06L160.11 430.78L150.47 433.74L163.58 446.84L155.9 454.53L141.93 440.55L128.64 469.5L128.64 473L132.14 473L165.97 457.48L172.21 437.12L221.23 388.1L213.54 380.41L169.32 424.63L174.07 429.38ZM249.58 401.09L257.8 385.99L234.48 385.99L249.58 401.09ZM263.71 375.13L273.12 357.84L202.49 354.01L223.62 375.13L263.71 375.13ZM215.66 343.84L278.87 347.27L284.82 336.34L285.29 335.84L293.3 327.27L246.1 327.27L215.66 343.84ZM265.74 316.41L303.45 316.41L320.75 297.91L285.53 297.91L265.74 316.41ZM297.14 287.05L330.9 287.05L348.2 268.55L316.93 268.55L297.14 287.05ZM328.55 257.69L358.35 257.69L375.64 239.2L348.33 239.2L328.55 257.69ZM359.95 228.34L385.8 228.34L403.1 209.83L379.74 209.83L359.95 228.34ZM391.35 198.97L413.25 198.97L430.54 180.47L411.14 180.47L391.35 198.97ZM422.76 169.61L440.7 169.61L457.99 151.11L442.54 151.11L422.76 169.61ZM468.14 140.25L477.08 130.7L476.38 125.26L470.94 124.56L454.16 140.25L468.14 140.25Z" id="f10pHxGL3o"></path><path d="M291.2 265.52L291.2 268.55L257.8 268.55L271.78 283.5L263.85 290.92L117.5 134.39L119.92 115.56L138.74 113.14L296.11 260.26L291.2 265.52ZM247.65 257.69L277.45 257.69L257.67 239.2L230.36 239.2L247.65 257.69ZM220.21 228.34L246.06 228.34L226.27 209.83L202.9 209.83L220.21 228.34ZM192.75 198.97L214.65 198.97L194.86 180.47L175.46 180.47L192.75 198.97ZM165.3 169.61L183.25 169.61L163.46 151.11L148.01 151.11L165.3 169.61ZM128.92 130.7L137.85 140.25L151.84 140.25L135.06 124.56L129.62 125.26L128.92 130.7Z" id="b52xmZAjL0"></path><path d="M291.2 265.52L291.2 268.55L257.8 268.55L271.78 283.5L263.85 290.92L117.5 134.39L119.92 115.56L138.74 113.14L296.11 260.26L291.2 265.52ZM247.65 257.69L277.45 257.69L257.67 239.2L230.36 239.2L247.65 257.69ZM220.21 228.34L246.06 228.34L226.27 209.83L202.9 209.83L220.21 228.34ZM192.75 198.97L214.65 198.97L194.86 180.47L175.46 180.47L192.75 198.97ZM165.3 169.61L183.25 169.61L163.46 151.11L148.01 151.11L165.3 169.61ZM128.92 130.7L137.85 140.25L151.84 140.25L135.06 124.56L129.62 125.26L128.92 130.7Z" id="b1RqhDO3Qn"></path></defs><g><g><g><use xlink:href="#d8dIutHS5E" opacity="1" fill="#000000" fill-opacity="0"></use><g><use xlink:href="#d8dIutHS5E" opacity="1" fill-opacity="0" stroke="#000000" stroke-width="1" stroke-opacity="0"></use></g></g><g><use xlink:href="#c56kegrnFk" opacity="1" fill="#000000" fill-opacity="0"></use><g><use xlink:href="#c56kegrnFk" opacity="1" fill-opacity="0" stroke="#000000" stroke-width="1" stroke-opacity="0"></use></g></g><g><use xlink:href="#c25rUA8UTP" opacity="1" fill="#000000" fill-opacity="0"></use><g><use xlink:href="#c25rUA8UTP" opacity="1" fill-opacity="0" stroke="#000000" stroke-width="1" stroke-opacity="0"></use></g></g><g><use xlink:href="#b2y4KMK9Sw" opacity="1" fill="#000000" fill-opacity="0"></use><g><use xlink:href="#b2y4KMK9Sw" opacity="1" fill-opacity="0" stroke="#ffffff" stroke-width="10.5" stroke-opacity="1"></use></g></g><g><use xlink:href="#aauCiC3X5" opacity="1" fill="#ffffff" fill-opacity="1"></use><g><use xlink:href="#aauCiC3X5" opacity="1" fill-opacity="0" stroke="#000000" stroke-width="1" stroke-opacity="0"></use></g></g><g><use xlink:href="#f4gHKFhbkC" opacity="1" fill="#000000" fill-opacity="0"></use><g><use xlink:href="#f4gHKFhbkC" opacity="1" fill-opacity="0" stroke="#ffffff" stroke-width="1" stroke-opacity="1"></use></g></g><g><use xlink:href="#a34zNZsDjx" opacity="1" fill="#ffffff" fill-opacity="1"></use><g><use xlink:href="#a34zNZsDjx" opacity="1" fill-opacity="0" stroke="#000000" stroke-width="1" stroke-opacity="0"></use></g></g><g><use xlink:href="#f10pHxGL3o" opacity="1" fill="#000000" fill-opacity="0"></use><g><use xlink:href="#f10pHxGL3o" opacity="1" fill-opacity="0" stroke="#ffffff" stroke-width="1" stroke-opacity="1"></use></g></g><g><use xlink:href="#b52xmZAjL0" opacity="1" fill="#ffffff" fill-opacity="1"></use><g><use xlink:href="#b52xmZAjL0" opacity="1" fill-opacity="0" stroke="#000000" stroke-width="1" stroke-opacity="0"></use></g></g><g><use xlink:href="#b1RqhDO3Qn" opacity="1" fill="#ffffff" fill-opacity="0"></use><g><use xlink:href="#b1RqhDO3Qn" opacity="1" fill-opacity="0" stroke="#ffffff" stroke-width="1" stroke-opacity="1"></use></g></g></g></g></svg>