<?xml version="1.0" encoding="UTF-8" standalone="no"?>
<!DOCTYPE svg PUBLIC "-//W3C//DTD SVG 1.1//EN" "http://www.w3.org/Graphics/SVG/1.1/DTD/svg11.dtd">
<svg version="1.1" xmlns="http://www.w3.org/2000/svg" xmlns:xlink="http://www.w3.org/1999/xlink" preserveAspectRatio="xMidYMid meet" viewBox="0 0 640 640" width="640" height="640"><defs><path d="M600 -1C600 -1 600 -1 600 -1C600 359.6 600 559.93 600 600C600 600 600 600 600 600C239.4 600 39.07 600 -1 600C-1 600 -1 600 -1 600C-1 239.4 -1 39.07 -1 -1C-1 -1 -1 -1 -1 -1C359.6 -1 559.93 -1 600 -1Z" id="e1ea7ABWzY"></path><path d="M576 297.5C576 448.83 453.33 571.5 302 571.5C150.67 571.5 28 448.83 28 297.5C28 146.17 150.67 23.5 302 23.5C453.33 23.5 576 146.17 576 297.5Z" id="aQz8rkosH"></path><path d="M422.4 348.47L399.14 371.74L446.24 418.84L468.68 425.71L487.22 466.13L487.22 482.86L470.49 482.86L430.07 464.32L423.2 441.88L376.1 394.78L352.83 418.04L311.31 341.75L307.95 338.16L315.88 330.74L320.18 335.34L326.13 346.27L389.35 342.84L358.9 326.27L326.86 326.27L326.86 315.41L339.26 315.41L334.16 310.65L341.58 302.71L346.11 306.95L422.4 348.47ZM432.79 436.11L439.03 456.48L472.86 472L476.36 472L476.36 468.5L463.08 439.55L449.1 453.53L441.42 445.84L454.53 432.74L444.89 429.78L438.61 436.06L430.93 428.38L435.68 423.63L391.46 379.41L383.77 387.1L432.79 436.11ZM370.52 384.99L347.21 384.99L355.42 400.09L370.52 384.99ZM341.29 374.13L381.38 374.13L402.51 353.01L331.88 356.84L341.29 374.13Z" id="a70Z9ZiPm"></path><path d="M487.5 133.38L292.7 341.75L251.17 418.04L227.91 394.78L180.8 441.88L173.93 464.32L133.51 482.86L116.78 482.86L116.78 466.13L135.32 425.71L157.76 418.84L204.86 371.74L181.6 348.47L257.89 306.95L466.26 112.14L485.08 114.56L487.5 133.38ZM173.07 428.38L165.39 436.06L159.11 429.78L149.47 432.74L162.58 445.84L154.9 453.53L140.93 439.55L127.64 468.5L127.64 472L131.14 472L164.97 456.48L171.21 436.12L220.23 387.1L212.54 379.41L168.32 423.63L173.07 428.38ZM248.58 400.09L256.8 384.99L233.48 384.99L248.58 400.09ZM262.71 374.13L272.12 356.84L201.49 353.01L222.62 374.13L262.71 374.13ZM214.66 342.84L277.87 346.27L283.82 335.34L284.29 334.84L292.3 326.27L245.1 326.27L214.66 342.84ZM264.74 315.41L302.45 315.41L319.75 296.91L284.53 296.91L264.74 315.41ZM296.14 286.05L329.9 286.05L347.2 267.55L315.93 267.55L296.14 286.05ZM327.55 256.69L357.35 256.69L374.64 238.2L347.33 238.2L327.55 256.69ZM358.95 227.34L358.95 227.34L384.8 227.34L402.1 208.83L378.74 208.83L358.95 227.34ZM390.35 197.97L412.25 197.97L429.54 179.47L410.14 179.47L390.35 197.97ZM421.76 168.61L439.7 168.61L456.99 150.11L441.54 150.11L421.76 168.61ZM467.14 139.25L476.08 129.7L475.38 124.26L469.94 123.56L453.16 139.25L467.14 139.25Z" id="f8Y1P3rdM"></path><path d="M290.2 264.52L290.2 267.55L256.8 267.55L270.78 282.5L262.85 289.92L116.5 133.39L118.92 114.56L137.74 112.14L295.11 259.26L290.2 264.52ZM246.65 256.69L276.45 256.69L256.67 238.2L229.36 238.2L246.65 256.69ZM245.06 227.34L225.27 208.83L201.9 208.83L219.21 227.34L245.06 227.34ZM191.75 197.97L213.65 197.97L193.86 179.47L174.46 179.47L191.75 197.97ZM164.3 168.61L182.25 168.61L162.46 150.11L147.01 150.11L164.3 168.61ZM127.92 129.7L136.85 139.25L150.84 139.25L134.06 123.56L128.62 124.26L127.92 129.7Z" id="a1qUUR1x7"></path></defs><g><g><g><use xlink:href="#e1ea7ABWzY" opacity="1" fill="#000000" fill-opacity="0"></use><g><use xlink:href="#e1ea7ABWzY" opacity="1" fill-opacity="0" stroke="#000000" stroke-width="1" stroke-opacity="0"></use></g></g><g><use xlink:href="#aQz8rkosH" opacity="1" fill="#000000" fill-opacity="0"></use><g><use xlink:href="#aQz8rkosH" opacity="1" fill-opacity="0" stroke="#0c6c8c" stroke-width="10.5" stroke-opacity="1"></use></g></g><g><use xlink:href="#a70Z9ZiPm" opacity="1" fill="#0c6c8c" fill-opacity="1"></use><g><use xlink:href="#a70Z9ZiPm" opacity="1" fill-opacity="0" stroke="#000000" stroke-width="1" stroke-opacity="1"></use></g></g><g><use xlink:href="#f8Y1P3rdM" opacity="1" fill="#0c6c8c" fill-opacity="1"></use><g><use xlink:href="#f8Y1P3rdM" opacity="1" fill-opacity="0" stroke="#000000" stroke-width="1" stroke-opacity="1"></use></g></g><g><use xlink:href="#a1qUUR1x7" opacity="1" fill="#0c6c8c" fill-opacity="1"></use><g><use xlink:href="#a1qUUR1x7" opacity="1" fill-opacity="0" stroke="#000000" stroke-width="1" stroke-opacity="1"></use></g></g></g></g></svg>